<svg width="203" height="48" viewBox="0 0 203 48" fill="none" xmlns="http://www.w3.org/2000/svg">
<path d="M23.6719 15.3594C23.6719 16.9844 23.3125 18.4688 22.5938 19.8125C21.875 21.125 20.9375 22.1719 19.7812 22.9531C19.0938 23.3594 18.5312 23.6562 18.0938 23.8438C19.7188 24.7812 20.9688 26.4531 21.8438 28.8594C22.9688 31.9219 23.875 35.6562 24.5625 40.0625H19.2656C18.3906 34.2812 17.3281 30.4844 16.0781 28.6719C14.7344 26.7031 13.125 25.7188 11.25 25.7188H8.71875V20.9375H11.4375C12.5 20.9375 13.4375 20.8438 14.25 20.6562C15.0625 20.4688 15.7656 20.1406 16.3594 19.6719C16.9844 19.2656 17.5 18.6875 17.9062 17.9375C18.3438 17.1562 18.5625 16.2969 18.5625 15.3594C18.5625 14.2969 18.3438 13.4063 17.9062 12.6875C17.5 11.9687 16.9844 11.4062 16.3594 11C15.7031 10.5312 14.9531 10.2031 14.1094 10.0156C13.2969 9.79688 12.5156 9.6875 11.7656 9.6875H7.6875V40.0625H2.57812V5.09375H11.6719C13.1719 5.09375 14.6094 5.28125 15.9844 5.65625C17.3594 6.03125 18.6094 6.57812 19.7344 7.29688C20.9219 8.10938 21.875 9.17188 22.5938 10.4844C23.3125 11.7656 23.6719 13.3906 23.6719 15.3594ZM31.5 25.1562H41.2969C41.2969 23.4375 41.0156 21.9688 40.4531 20.75C40.1094 20.1875 39.6562 19.7344 39.0938 19.3906C38.5312 19.0156 37.8594 18.8281 37.0781 18.8281C35.5156 18.8281 34.1875 19.5469 33.0938 20.9844C32.25 22.0156 31.7188 23.4062 31.5 25.1562ZM31.6406 29.4219C31.7344 30.0156 31.8906 30.6094 32.1094 31.2031C32.3594 31.9844 32.75 32.75 33.2812 33.5C33.8438 34.2188 34.5469 34.875 35.3906 35.4688C35.6719 35.6562 36.125 35.8438 36.75 36.0312C37.4062 36.1875 38.1719 36.2656 39.0469 36.2656C39.6719 36.2656 40.5 36.1719 41.5312 35.9844C42.5625 35.7969 43.9531 35.2031 45.7031 34.2031V38.6094C44.1719 39.5469 42.6562 40.1406 41.1562 40.3906C39.6562 40.6406 38.1562 40.6875 36.6562 40.5312C35.3438 40.4062 34.0312 40.0312 32.7188 39.4062C31.4375 38.75 30.3906 37.9844 29.5781 37.1094C28.6406 35.9844 27.8438 34.5781 27.1875 32.8906C26.5625 31.2031 26.25 29.2656 26.25 27.0781C26.25 25.2656 26.4844 23.6094 26.9531 22.1094C27.4219 20.5781 28.1094 19.2656 29.0156 18.1719C29.9219 17.0781 31.0469 16.2031 32.3906 15.5469C33.7344 14.8594 35.2969 14.5156 37.0781 14.5156C38.5469 14.5156 39.9375 14.8438 41.25 15.5C42.5625 16.125 43.5938 16.9375 44.3438 17.9375C45.7188 19.75 46.4062 22.6406 46.4062 26.6094V29.4219H31.6406ZM69.0469 23.8438H63.7969C63.7969 22.3125 63.4531 21.0938 62.7656 20.1875C62.0781 19.2812 61.0625 18.8281 59.7188 18.8281C58.1562 18.8281 56.8125 19.5469 55.6875 20.9844C54.5938 22.4219 54.0469 24.4688 54.0469 27.125C54.0469 27.75 54.0938 28.4219 54.1875 29.1406C54.3125 29.8281 54.5 30.5156 54.75 31.2031C55 32.0156 55.3906 32.7812 55.9219 33.5C56.4844 34.2188 57.1875 34.875 58.0312 35.4688C58.3125 35.6562 58.7656 35.8438 59.3906 36.0312C60.0469 36.1875 60.8125 36.2656 61.6875 36.2656C62.3125 36.2656 63.125 36.1875 64.125 36.0312C65.125 35.8438 66.5312 35.2344 68.3438 34.2031V38.6094C66.8125 39.5469 65.2969 40.1406 63.7969 40.3906C62.2969 40.6406 60.7969 40.6875 59.2969 40.5312C57.9844 40.4062 56.6719 40.0312 55.3594 39.4062C54.0781 38.75 53.0312 37.9844 52.2188 37.1094C51.2812 35.9844 50.4844 34.5781 49.8281 32.8906C49.2031 31.2031 48.8906 29.2656 48.8906 27.0781C48.8906 25.2656 49.125 23.6094 49.5938 22.1094C50.0625 20.5781 50.75 19.2656 51.6562 18.1719C52.5625 17.0469 53.7031 16.1562 55.0781 15.5C56.4531 14.8438 58.0312 14.5156 59.8125 14.5156C61.0938 14.5156 62.2812 14.7188 63.375 15.125C64.4688 15.5312 65.4219 16.1094 66.2344 16.8594C67.0781 17.5781 67.75 18.4688 68.25 19.5312C68.7812 20.5938 69.0469 22.0312 69.0469 23.8438ZM88.0312 27.5938C88.0312 26.375 87.8906 25.1719 87.6094 23.9844C87.3281 22.7969 86.9219 21.8281 86.3906 21.0781C85.8906 20.2656 85.2812 19.6719 84.5625 19.2969C83.8438 18.9219 83.1094 18.7344 82.3594 18.7344C81.6094 18.7344 80.875 18.9219 80.1562 19.2969C79.4375 19.6719 78.8125 20.2656 78.2812 21.0781C77.7812 21.8281 77.3906 22.7969 77.1094 23.9844C76.8281 25.1719 76.6875 26.375 76.6875 27.5938C76.6875 28.8125 76.8281 30.0156 77.1094 31.2031C77.3906 32.3594 77.7812 33.3125 78.2812 34.0625C78.8125 34.875 79.4375 35.4688 80.1562 35.8438C80.875 36.1875 81.6094 36.3594 82.3594 36.3594C83.1094 36.3594 83.8438 36.1875 84.5625 35.8438C85.2812 35.4688 85.8906 34.875 86.3906 34.0625C86.9219 33.3125 87.3281 32.3594 87.6094 31.2031C87.8906 30.0156 88.0312 28.8125 88.0312 27.5938ZM93.1875 27.5938C93.1875 29.3438 92.9375 31.0469 92.4375 32.7031C91.9375 34.3281 91.2188 35.7344 90.2812 36.9219C89.2812 38.1094 88.0781 39.0156 86.6719 39.6406C85.2969 40.2656 83.8594 40.5781 82.3594 40.5781C80.8594 40.5781 79.4062 40.2656 78 39.6406C76.625 39.0156 75.4375 38.1094 74.4375 36.9219C73.5 35.7344 72.7812 34.3281 72.2812 32.7031C71.7812 31.0469 71.5312 29.3438 71.5312 27.5938C71.5312 25.8438 71.7812 24.1562 72.2812 22.5312C72.7812 20.875 73.5 19.4531 74.4375 18.2656C75.4375 17.0156 76.625 16.0781 78 15.4531C79.4062 14.8281 80.8594 14.5156 82.3594 14.5156C83.8594 14.5156 85.2969 14.8281 86.6719 15.4531C88.0781 16.0781 89.2812 17.0156 90.2812 18.2656C91.2188 19.4531 91.9375 20.875 92.4375 22.5312C92.9375 24.1562 93.1875 25.8438 93.1875 27.5938ZM100.547 27.125C100.547 28.3438 100.688 29.4375 100.969 30.4062C101.281 31.3438 101.688 32.2031 102.188 32.9844C102.656 33.7656 103.203 34.3594 103.828 34.7656C104.484 35.1719 105.141 35.375 105.797 35.375C106.422 35.375 107.047 35.1562 107.672 34.7188C108.328 34.2812 108.906 33.7031 109.406 32.9844C109.906 32.2344 110.297 31.375 110.578 30.4062C110.859 29.4375 111 28.3438 111 27.125C111 25.9062 110.859 24.8281 110.578 23.8906C110.328 22.9219 109.938 22.0469 109.406 21.2656C108.906 20.5469 108.328 19.9688 107.672 19.5312C107.047 19.0938 106.422 18.875 105.797 18.875C105.141 18.875 104.484 19.0781 103.828 19.4844C103.203 19.8906 102.656 20.4688 102.188 21.2188C101.656 22.0312 101.25 22.9219 100.969 23.8906C100.688 24.8281 100.547 25.9062 100.547 27.125ZM116.016 37.1094C115.891 41.0156 114.875 43.7188 112.969 45.2188C110.969 46.8438 108.188 47.6562 104.625 47.6562C103.5 47.6562 102.234 47.5469 100.828 47.3281C99.4219 47.1406 98.1875 46.7812 97.125 46.25V41C98.75 41.875 100.188 42.4375 101.438 42.6875C102.688 42.9688 103.859 43.1094 104.953 43.1094C106.859 43.1094 108.297 42.7656 109.266 42.0781C110.266 41.4219 110.828 40.3594 110.953 38.8906C111.016 38.3281 111.047 37.6875 111.047 36.9688C110.859 37.3125 110.234 37.8281 109.172 38.5156C108.109 39.2656 106.812 39.6406 105.281 39.6406C103.906 39.6406 102.594 39.3438 101.344 38.75C100.094 38.125 99.0469 37.2344 98.2031 36.0781C97.3906 35.0156 96.7344 33.7344 96.2344 32.2344C95.7344 30.7344 95.4844 28.9531 95.4844 26.8906C95.4844 25.2344 95.6875 23.7344 96.0938 22.3906C96.5 21.0469 97.1094 19.7656 97.9219 18.5469C98.7031 17.3594 99.7656 16.3906 101.109 15.6406C102.453 14.8906 103.938 14.5156 105.562 14.5156C107.875 14.5156 109.703 15.4688 111.047 17.375V15.125H116.016V37.1094ZM140.016 40.0625H135V24.3125C135 22.625 134.641 21.25 133.922 20.1875C133.391 19.4375 132.484 19.0625 131.203 19.0625C130.109 19.0625 129.078 19.6094 128.109 20.7031C127.141 21.7969 126.438 23.4688 126 25.7188C125.875 26.25 125.781 26.7969 125.719 27.3594C125.688 27.8906 125.672 28.4844 125.672 29.1406V40.0625H120.703V15.125H125.672V17.6562C126.203 16.875 126.984 16.1562 128.016 15.5C129.047 14.8438 130.203 14.5156 131.484 14.5156C134.141 14.5156 136.203 15.2344 137.672 16.6719C139.234 18.2656 140.016 20.5312 140.016 23.4688V40.0625ZM150.844 41.9844H144.609V35.5156H150.844V41.9844ZM161.016 11.1406H155.25V5.09375H161.016V11.1406ZM160.734 40.0625H155.625V15.125H160.734V40.0625Z" fill="white"/>
<path d="M193 18C193 22.418 189.418 26 185 26C180.582 26 177 22.418 177 18C177 13.582 180.582 10 185 10C189.418 10 193 13.582 193 18ZM189 18C189 15.794 187.208 14 185 14C182.792 14 181 15.794 181 18C181 20.206 182.792 22 185 22C187.208 22 189 20.206 189 18ZM171 18C171 25.72 177.282 32 185 32C192.718 32 199 25.72 199 18C199 10.28 192.718 4 185 4C177.282 4 171 10.28 171 18ZM203 18C203 27.94 194.942 36 185 36C175.058 36 167 27.94 167 18C167 8.06 175.058 0 185 0C194.942 0 203 8.06 203 18ZM202.192 43.002C204.206 45.286 202.164 48.36 199.296 47.964C195.706 47.474 192.824 44.56 185.002 44.56C177.182 44.56 174.298 47.476 170.71 47.964C167.838 48.36 165.798 45.284 167.812 43.002L173.608 36.424C174.726 37.2 175.92 37.874 177.188 38.412L173.138 43.008C175.728 41.96 179.268 40.558 185.004 40.558C190.74 40.558 194.28 41.958 196.87 43.006L192.82 38.41C194.088 37.87 195.282 37.198 196.4 36.422L202.192 43.002Z" fill="#48CAE4"/>
</svg>
